<svg width="240" height="200" viewBox="0 0 240 200" xmlns="http://www.w3.org/2000/svg">
  <defs>
    <!-- Left wing gradient: Pink to Lilac to Blue -->
    <linearGradient id="leftWingGradient" x1="0%" y1="0%" x2="100%" y2="100%">
      <stop offset="0%" style="stop-color:#FF78B9;stop-opacity:1" />
      <stop offset="50%" style="stop-color:#C8A7FF;stop-opacity:0.9" />
      <stop offset="100%" style="stop-color:#5FA8FF;stop-opacity:0.85" />
    </linearGradient>
    
    <!-- Right wing gradient: Blue to Lilac to Pink -->
    <linearGradient id="rightWingGradient" x1="0%" y1="0%" x2="100%" y2="100%">
      <stop offset="0%" style="stop-color:#5FA8FF;stop-opacity:1" />
      <stop offset="50%" style="stop-color:#C8A7FF;stop-opacity:0.9" />
      <stop offset="100%" style="stop-color:#FF78B9;stop-opacity:0.85" />
    </linearGradient>
    
    <!-- Soft glow filter -->
    <filter id="softGlow" x="-50%" y="-50%" width="200%" height="200%">
      <feGaussianBlur stdDeviation="4" result="coloredBlur"/>
      <feMerge>
        <feMergeNode in="coloredBlur"/>
        <feMergeNode in="SourceGraphic"/>
      </feMerge>
    </filter>
    
    <!-- Soft shadow -->
    <filter id="softShadow" x="-50%" y="-50%" width="200%" height="200%">
      <feGaussianBlur in="SourceAlpha" stdDeviation="3"/>
      <feOffset dx="0" dy="2" result="offsetblur"/>
      <feComponentTransfer>
        <feFuncA type="linear" slope="0.25"/>
      </feComponentTransfer>
      <feMerge>
        <feMergeNode/>
        <feMergeNode in="SourceGraphic"/>
      </feMerge>
    </filter>
  </defs>
  
  <!-- Left top wing -->
  <path d="M 60 100 Q 35 55, 45 30 Q 55 10, 80 20 Q 70 45, 60 65 Z" 
        fill="url(#leftWingGradient)" 
        filter="url(#softShadow)"
        opacity="0.95"/>
  
  <!-- Left bottom wing -->
  <path d="M 60 100 Q 35 145, 45 170 Q 55 190, 80 180 Q 70 155, 60 135 Z" 
        fill="url(#leftWingGradient)" 
        filter="url(#softShadow)"
        opacity="0.95"/>
  
  <!-- Right top wing -->
  <path d="M 180 100 Q 205 55, 195 30 Q 185 10, 160 20 Q 170 45, 180 65 Z" 
        fill="url(#rightWingGradient)" 
        filter="url(#softShadow)"
        opacity="0.95"/>
  
  <!-- Right bottom wing -->
  <path d="M 180 100 Q 205 145, 195 170 Q 185 190, 160 180 Q 170 155, 180 135 Z" 
        fill="url(#rightWingGradient)" 
        filter="url(#softShadow)"
        opacity="0.95"/>
  
  <!-- Body (vertical ellipse) -->
  <ellipse cx="120" cy="100" rx="10" ry="70" 
           fill="#5FA8FF" 
           filter="url(#softShadow)"
           opacity="0.9"/>
  
  <!-- Body highlight -->
  <ellipse cx="120" cy="100" rx="6" ry="50" 
           fill="rgba(255, 255, 255, 0.4)"/>
  
  <!-- Antennae left -->
  <path d="M 115 35 Q 108 20, 100 12" 
        stroke="#5FA8FF" 
        stroke-width="3" 
        fill="none" 
        stroke-linecap="round"
        opacity="0.85"/>
  
  <!-- Antennae right -->
  <path d="M 125 35 Q 132 20, 140 12" 
        stroke="#5FA8FF" 
        stroke-width="3" 
        fill="none" 
        stroke-linecap="round"
        opacity="0.85"/>
  
  <!-- Antennae tips -->
  <circle cx="100" cy="12" r="4" fill="#FF78B9" opacity="0.9" filter="url(#softGlow)"/>
  <circle cx="140" cy="12" r="4" fill="#FF78B9" opacity="0.9" filter="url(#softGlow)"/>
  
  <!-- Decorative spots on wings (left) -->
  <circle cx="70" cy="70" r="10" fill="rgba(255, 255, 255, 0.5)"/>
  <circle cx="70" cy="130" r="8" fill="rgba(255, 255, 255, 0.4)"/>
  
  <!-- Decorative spots on wings (right) -->
  <circle cx="170" cy="70" r="10" fill="rgba(255, 255, 255, 0.5)"/>
  <circle cx="170" cy="130" r="8" fill="rgba(255, 255, 255, 0.4)"/>
</svg>
