<svg xmlns="http://www.w3.org/2000/svg" viewBox="0 0 64 64" aria-hidden="true" focusable="false">
  <path fill="currentColor" d="M16.17,5.46L16.17,5.45L16.21,5.20L16.41,5.09L16.70,5.10L16.72,5.45L17.26,5.45L17.73,5.46L17.74,5.56L17.84,5.70L17.85,5.81L17.83,5.93L17.82,6.04L17.87,6.12L18.00,6.19L18.28,6.39L18.44,6.47L18.60,6.51L18.63,6.51L19.69,6.50L19.94,6.47L20.02,6.47L20.09,6.49L20.22,6.54L20.32,6.55L21.66,6.53L22.80,6.51L22.86,6.52L22.97,6.57L23.01,6.58L23.03,6.58L24.43,6.57L24.86,6.67L25.38,6.89L25.67,6.94L25.74,6.99L25.86,7.14L25.91,7.17L26.06,7.16L26.11,7.18L26.16,7.23L26.19,7.29L26.22,7.42L26.25,7.45L26.28,7.46L26.33,7.46L26.37,7.47L26.76,7.68L27.47,8.05L28.18,8.43L29.01,8.86L29.59,9.17L30.26,9.53L31.01,9.92L31.70,10.29L32.42,10.67L32.65,10.79L32.78,10.90L32.97,11.14L33.08,11.25L33.17,11.30L33.39,11.35L33.55,11.47L33.64,11.48L33.87,11.44L34.10,11.42L34.87,11.49L35.64,11.56L36.05,11.54L36.42,11.40L36.43,11.37L36.42,11.32L36.44,11.27L36.51,11.24L36.55,11.26L36.68,11.35L36.74,11.41L36.76,11.45L36.78,11.49L36.89,11.51L36.98,11.52L37.02,11.51L37.12,11.48L37.14,11.50L37.14,11.53L37.18,11.55L37.60,11.58L37.60,11.54L37.61,11.45L37.61,11.41L37.81,11.63L37.92,11.72L38.05,11.78L38.77,11.94L39.31,12.06L39.50,12.06L39.80,12.01L39.92,12.02L40.03,12.06L40.15,12.06L40.56,11.98L40.63,12.00L40.73,12.03L41.38,12.28L41.66,12.33L41.94,12.32L42.22,12.19L42.27,12.17L42.36,12.17L42.39,12.24L42.33,12.35L43.23,12.37L43.46,12.43L43.52,12.50L43.56,12.58L43.61,12.66L43.73,12.72L43.96,12.71L44.08,12.55L44.24,12.16L44.43,11.97L44.90,11.61L45.47,11.18L45.61,11.03L45.73,10.85L45.94,10.41L46.08,10.10L46.22,9.95L46.85,9.70L47.47,9.45L48.17,9.17L48.50,9.04L48.54,9.01L48.53,8.97L48.54,8.94L48.61,8.95L48.63,8.96L48.65,8.96L48.67,8.96L49.41,8.75L49.98,8.59L50.02,8.56L50.06,8.46L50.10,8.43L51.04,8.13L51.80,7.89L52.41,7.70L52.87,7.45L53.02,7.63L53.46,7.87L53.64,8.04L53.76,8.22L53.84,8.28L53.97,8.34L54.32,8.44L54.43,8.49L54.62,8.64L55.09,9.17L55.41,9.38L55.76,9.50L56.14,9.53L56.88,9.50L57.70,9.46L58.06,9.38L58.25,9.37L58.83,9.25L58.95,9.26L59.14,9.32L59.24,9.34L59.35,9.32L59.66,9.17L60.00,9.27L60.32,9.41L60.64,9.46L61.00,9.29L60.39,10.01L59.78,10.73L59.18,11.44L58.57,12.16L58.19,12.60L57.82,13.05L57.44,13.49L57.07,13.93L56.47,14.41L55.87,14.90L55.28,15.39L54.68,15.87L54.43,16.08L54.33,16.24L54.33,16.56L54.34,17.33L54.35,18.14L54.35,18.58L54.35,19.21L54.35,19.85L54.35,20.49L54.35,21.12L54.35,21.87L54.35,22.62L54.35,23.36L54.35,24.11L54.35,24.86L54.35,25.60L54.35,25.70L54.35,26.35L54.35,27.10L54.35,27.84L54.35,28.59L54.35,29.34L54.35,30.08L54.35,30.83L54.35,31.58L54.35,32.32L54.35,33.07L54.36,33.56L54.36,33.96L54.37,34.37L54.38,35.02L54.39,35.66L54.40,36.31L54.41,36.96L54.42,37.38L54.43,37.80L54.43,38.26L54.62,38.45L54.80,38.65L54.99,38.85L55.17,39.04L55.53,39.43L55.90,39.82L56.30,40.25L56.63,40.60L56.99,40.98L57.36,41.38L57.73,41.77L58.09,42.15L58.37,42.45L58.46,42.58L58.49,42.70L58.47,43.07L58.46,43.19L58.46,43.19L57.90,43.66L57.64,43.99L57.61,44.09L57.45,44.17L57.04,44.48L56.78,44.74L56.63,44.82L56.52,44.70L56.38,44.75L56.26,44.74L56.18,44.67L56.17,44.54L56.02,44.66L55.99,44.81L55.93,44.94L55.72,44.93L55.43,44.87L55.37,44.87L55.28,44.92L55.14,45.05L54.94,45.11L54.87,45.19L54.79,45.26L54.67,45.26L54.58,45.22L54.51,45.18L54.46,45.12L54.43,45.03L54.44,44.94L54.51,44.78L54.50,44.71L54.48,44.62L54.51,44.55L54.62,44.42L54.37,44.58L54.34,45.28L54.18,45.44L54.05,45.36L53.91,44.99L53.78,44.91L53.71,44.87L53.64,44.81L53.57,44.78L53.48,44.87L53.53,44.96L53.55,45.04L53.53,45.11L53.65,45.07L53.75,45.09L53.81,45.16L53.83,45.26L53.82,45.30L53.75,45.33L53.73,45.36L53.76,45.42L53.81,45.43L53.86,45.44L53.88,45.48L53.90,45.92L53.94,46.15L54.03,46.30L54.10,46.32L54.18,46.31L54.27,46.31L54.36,46.36L54.43,46.45L54.44,46.51L54.36,46.67L54.18,46.85L54.02,46.88L53.99,46.81L54.23,46.71L54.11,46.68L54.01,46.62L53.83,46.47L53.80,46.42L53.81,46.39L53.81,46.37L53.73,46.34L53.74,46.36L53.69,46.37L53.59,46.39L53.40,46.47L53.24,46.63L53.09,46.74L52.94,46.67L52.94,46.72L52.96,46.78L53.00,46.82L53.06,46.84L53.10,46.86L53.08,46.89L53.03,46.96L53.08,47.05L53.29,47.16L53.34,47.24L53.25,47.38L53.05,47.54L52.82,47.68L52.49,47.79L52.04,48.23L51.79,48.30L51.57,48.26L51.35,48.18L51.12,48.14L50.89,48.16L50.15,48.35L49.85,48.53L49.67,48.58L49.46,48.69L49.09,48.93L49.01,49.00L48.94,49.08L48.81,49.33L48.59,49.56L48.56,49.66L48.58,49.71L48.68,49.82L48.69,49.86L48.67,49.96L48.66,50.01L48.52,50.39L48.50,50.58L48.66,50.68L48.62,50.84L48.71,50.91L48.86,50.89L49.01,50.80L49.01,50.87L48.96,50.94L48.70,51.14L48.55,51.31L48.51,51.38L48.48,51.68L48.44,51.79L48.19,52.07L48.18,52.15L48.26,52.37L48.26,52.48L48.22,52.57L48.15,52.66L48.07,52.74L47.96,52.79L47.61,52.92L47.52,52.98L47.34,53.14L47.25,53.21L47.12,53.22L47.17,53.12L47.25,52.89L47.27,52.81L47.14,52.84L47.08,52.90L47.07,52.97L47.07,53.06L47.06,53.11L47.02,53.26L47.03,53.29L47.06,53.33L47.07,53.36L46.94,53.53L46.80,53.85L46.60,54.11L46.53,54.45L46.44,54.59L46.35,54.66L46.29,54.67L46.13,54.62L46.10,54.60L46.00,54.51L45.97,54.50L45.77,54.49L45.80,54.44L45.81,54.41L45.73,54.36L45.68,54.47L45.70,54.56L45.79,54.62L45.93,54.62L45.84,54.70L45.87,54.77L45.98,54.80L46.23,54.71L46.31,54.76L46.36,54.85L46.37,54.94L46.36,55.13L45.77,56.46L45.59,56.60L45.38,56.63L45.23,56.54L45.24,56.34L45.07,56.41L45.03,56.46L45.06,56.52L45.11,56.58L45.13,56.63L45.16,56.69L45.24,56.74L45.40,56.73L45.48,56.77L45.46,56.87L45.30,57.01L45.28,57.05L45.26,57.10L45.21,57.18L45.14,57.24L45.08,57.27L45.01,57.24L44.96,57.10L44.91,57.07L44.86,57.00L44.87,56.86L44.86,56.78L44.73,56.87L44.55,56.78L44.46,56.77L44.38,56.82L44.46,56.88L44.54,56.91L44.73,56.95L44.68,57.05L44.61,57.10L44.38,57.15L44.31,57.15L44.23,57.14L44.16,57.15L44.14,57.19L44.14,57.32L44.16,57.38L44.19,57.44L44.29,57.32L44.53,57.31L44.79,57.37L44.93,57.48L44.90,57.62L44.54,58.13L44.31,58.62L44.07,59.35L43.99,59.52L43.92,59.45L43.86,59.45L43.80,59.50L43.74,59.57L43.73,59.60L43.74,59.68L43.71,59.71L43.61,59.79L43.59,59.81L43.34,60.43L43.29,60.32L43.32,60.14L43.29,60.06L43.20,60.12L43.14,60.20L43.10,60.29L43.04,60.38L43.01,60.38L42.95,60.36L42.91,60.36L42.89,60.45L42.90,60.50L43.02,60.63L42.94,60.71L42.70,60.74L42.42,60.68L42.25,60.51L42.24,60.54L42.20,60.63L41.99,60.58L41.83,60.70L41.70,60.87L41.56,60.96L41.53,60.96L41.50,60.97L41.48,60.97L41.45,61.00L40.84,60.63L40.22,60.27L39.60,59.90L38.98,59.53L38.36,59.17L37.74,58.80L37.12,58.43L36.50,58.06L35.88,57.70L35.83,57.67L35.26,57.33L34.64,56.96L34.02,56.60L33.41,56.23L32.79,55.86L32.17,55.49L31.55,55.13L31.15,54.89L31.05,54.79L30.98,54.66L30.85,54.30L30.80,54.20L30.70,54.13L30.56,54.07L30.41,54.04L30.25,54.03L29.91,54.05L29.88,53.96L29.94,53.85L29.97,53.75L29.94,53.70L29.82,53.69L29.76,53.64L29.75,53.58L29.77,53.51L29.81,53.45L29.84,53.39L29.95,53.30L30.11,53.19L30.28,53.11L30.42,53.11L30.41,53.00L30.43,52.92L30.51,52.86L30.64,52.86L30.49,52.13L30.48,52.05L30.35,51.40L30.24,51.25L29.64,50.98L28.64,50.52L28.08,50.26L26.52,49.54L24.97,48.83L23.41,48.11L21.85,47.40L20.29,46.68L18.74,45.96L17.18,45.25L15.62,44.53L14.07,43.82L12.84,43.25L12.51,43.10L10.95,42.38L9.39,41.67L9.01,41.49L7.83,40.95L6.28,40.24L4.72,39.52L4.18,39.27L3.91,39.25L3.81,39.20L3.79,39.04L3.68,39.04L3.65,39.04L3.10,39.04L3.06,37.83L3.03,37.01L3.15,36.16L3.32,34.92L3.46,33.98L3.45,33.75L3.23,33.13L3.00,32.52L3.02,32.40L3.44,31.93L3.51,31.87L4.09,31.23L4.35,31.06L4.41,30.98L4.43,30.86L4.35,30.64L4.34,30.53L4.38,30.48L4.50,30.35L4.55,30.29L4.57,30.24L4.75,29.65L4.76,29.63L4.88,29.45L5.09,29.33L5.39,29.24L5.62,29.14L5.80,28.99L5.92,28.73L5.94,28.59L5.96,28.52L6.02,28.47L6.49,28.27L6.61,28.18L6.71,27.94L6.92,27.72L7.11,27.33L7.15,27.21L7.16,26.94L7.20,26.82L7.26,26.69L7.33,26.59L7.48,26.47L7.60,26.49L7.71,26.55L7.86,26.52L7.87,26.52L7.91,26.46L7.94,26.41L7.96,26.28L8.01,26.17L8.36,26.10L8.60,25.91L8.76,25.83L9.35,25.78L9.58,25.69L9.67,25.45L9.60,25.21L9.47,24.97L9.46,24.86L9.45,24.76L9.88,24.47L10.03,23.99L10.20,23.78L10.27,23.75L10.42,23.72L10.49,23.70L10.57,23.64L10.62,23.57L10.85,23.17L10.89,23.04L10.90,21.88L10.93,21.81L11.07,21.67L11.10,21.60L11.06,21.54L10.89,21.40L10.83,21.34L10.77,21.24L10.74,21.12L10.74,20.99L10.75,20.88L10.81,20.61L10.81,20.50L10.49,19.85L10.36,19.59L10.07,19.03L10.03,18.79L10.09,18.65L10.22,18.56L10.37,18.49L10.48,18.39L10.50,18.25L10.43,18.15L10.23,17.98L10.19,17.87L10.15,17.57L10.07,17.49L10.01,17.50L9.96,17.55L9.90,17.59L9.80,17.59L9.73,17.53L9.43,17.01L9.32,16.49L9.17,16.11L9.14,16.06L9.09,16.01L9.05,16.00L8.85,15.92L8.83,15.90L8.82,15.89L8.81,15.87L8.79,15.85L8.76,15.84L8.75,15.85L8.71,15.90L8.70,15.91L8.67,15.92L8.59,15.98L8.54,15.99L8.44,15.97L8.38,15.91L8.27,15.77L8.04,15.56L7.96,15.45L7.75,14.55L7.75,14.55L7.67,14.42L7.52,14.34L7.17,14.26L7.02,14.18L6.94,14.04L6.87,13.31L6.78,13.07L6.72,13.01L6.66,12.95L6.60,12.88L6.58,12.81L6.60,12.74L6.67,12.60L6.69,12.54L6.66,12.47L6.57,12.35L6.56,12.28L6.60,12.23L6.67,12.21L6.74,12.19L6.81,12.16L6.95,11.99L7.02,11.75L7.03,11.27L6.98,11.14L6.88,11.08L6.74,11.05L6.61,10.99L6.37,10.78L6.24,10.74L6.04,10.79L5.97,10.85L5.94,10.90L5.90,10.93L5.82,10.89L5.71,10.65L5.55,10.48L5.54,10.45L5.47,10.45L5.32,10.49L5.18,10.50L5.05,10.52L4.99,10.53L4.90,10.50L4.95,10.45L5.09,10.37L5.00,10.28L4.89,10.25L4.88,10.22L5.22,10.07L5.30,9.99L5.28,9.91L5.12,9.84L4.98,9.84L4.69,9.92L4.58,9.94L4.41,9.89L4.42,9.79L4.51,9.65L4.59,9.49L4.57,9.40L4.49,9.33L4.38,9.27L4.29,9.20L4.24,9.11L4.24,9.05L4.27,8.99L4.30,8.91L4.32,8.77L4.32,8.70L4.30,8.63L4.24,8.56L4.16,8.50L4.09,8.44L4.08,8.36L4.09,8.17L4.00,8.03L3.84,7.93L3.63,7.84L4.36,7.25L5.09,6.65L5.83,6.05L6.56,5.45L7.13,5.21L7.63,5.00L8.13,4.79L8.63,4.59L9.33,4.37L9.92,4.19L10.48,4.02L11.07,3.84L11.73,3.63L12.33,3.45L12.83,3.29L12.96,3.49L13.47,3.26L14.04,3.00L14.20,3.16L13.92,3.62L14.65,3.62L15.19,3.75L14.84,4.49L15.13,4.93L15.48,5.45L15.48,5.45L15.49,5.45L16.13,5.64L16.17,5.46L16.17,5.46Z M54.97,45.30L55.06,45.22L55.25,45.23L55.47,45.29L55.62,45.36L55.76,45.55L55.71,45.67L55.57,45.69L55.47,45.56L55.48,45.63L55.47,45.70L55.44,45.75L55.40,45.77L55.37,45.77L55.36,45.79L55.34,45.80L55.30,45.81L55.25,45.80L55.21,45.77L55.18,45.74L55.17,45.73L55.08,45.74L54.95,45.78L54.68,45.89L54.61,45.85L54.55,45.86L54.50,45.91L54.48,45.99L54.52,46.04L54.60,46.08L54.65,46.12L54.62,46.18L54.53,46.18L54.48,46.15L54.44,46.09L54.43,46.02L54.27,46.04L54.27,45.91L54.36,45.72L54.46,45.58L54.59,45.52L54.76,45.48L54.91,45.42L54.97,45.30Z"/>
</svg>